<svg width="185.0274658203125px" height="178.439990234375px" xmlns="http://www.w3.org/2000/svg" viewBox="157.48626708984375 -14.219995117187494 185.0274658203125 178.439990234375" style="background: rgba(95, 42, 98, 0);" preserveAspectRatio="xMidYMid"><defs><filter id="editing-hover" x="-100%" y="-100%" width="300%" height="300%"><feFlood flood-color="rgba(62.745098039215705%,87.05882352941177%,34.90196078431373%,0)" result="flood"></feFlood><feComposite operator="in" in2="SourceAlpha" in="flood" result="shadow"></feComposite><feOffset dx="-4" dy="-4" in="SourceGraphic" result="offset-1"></feOffset><feOffset dx="4" dy="4" in="shadow" result="offset-2"></feOffset><feMerge><feMergeNode in="offset-2"></feMergeNode><feMergeNode in="offset-1"></feMergeNode></feMerge></filter></defs><g filter="url(#editing-hover)"><g transform="translate(190.31562566757202, 109.95000076293945)"><path d="M53.90-20.70L53.90-20.70L53.90-20.70Q56.50-18.80 56.50-14.75L56.50-14.75L56.50-14.75Q56.50-10.70 54.75-7.85L54.75-7.85L54.75-7.85Q53-5 49.60-2.80L49.60-2.80L49.60-2.80Q42.30 1.90 29.55 1.90L29.55 1.90L29.55 1.90Q16.80 1.90 9.85-4.75L9.85-4.75L9.85-4.75Q2.90-11.40 2.90-23.20L2.90-23.20L2.90-23.20Q2.90-39.90 11.60-52.60L11.60-52.60L11.60-52.60Q18.20-62 30-66L30-66L30-66Q36.10-68 42.10-68L42.10-68L42.10-68Q48.10-68 51.80-67.20L51.80-67.20L51.80-67.20Q55.50-66.40 58.30-64.80L58.30-64.80L58.30-64.80Q64.40-61.30 64.40-55.70L64.40-55.70L64.40-55.70Q64.40-50.60 59.60-46.80L59.60-46.80L59.60-46.80Q55.20-43.40 51.60-43.40L51.60-43.40L51.60-43.40Q48-43.40 46.50-43.90L46.50-43.90L46.50-43.90Q46.90-47.50 46.90-49.85L46.90-49.85L46.90-49.85Q46.90-52.20 46.80-53.90L46.80-53.90L46.80-53.90Q46.70-55.60 46.20-57.20L46.20-57.20L46.20-57.20Q45.20-60.90 42.15-60.90L42.15-60.90L42.15-60.90Q39.10-60.90 36.05-58.05L36.05-58.05L36.05-58.05Q33-55.20 30.40-50.40L30.40-50.40L30.40-50.40Q24.50-39.50 24.50-26.60L24.50-26.60L24.50-26.60Q24.50-20.40 28-16.85L28-16.85L28-16.85Q31.50-13.30 39-13.30L39-13.30L39-13.30Q44.60-13.30 49.90-17L49.90-17L49.90-17Q52.20-18.60 53.90-20.70ZM110.30-53L110.30-53L110.30-53Q102.20-53 96.30-55.70L96.30-55.70L93.10-39.50L112.40-39.50L112.40-39.50Q112.40-34.20 109.75-30.85L109.75-30.85L109.75-30.85Q107.10-27.50 102.30-27.50L102.30-27.50L102.30-27.50Q97.10-27.50 92.30-29.40L92.30-29.40L92.30-29.40Q91.30-29.80 91.20-29.90L91.20-29.90L85.50 0L63.70 0L76.40-66L121-66L121-66Q121-59.90 118.15-56.45L118.15-56.45L118.15-56.45Q115.30-53 110.30-53Z" fill="#a976c3"></path></g></g><style>text {
  font-size: 64px;
  font-family: Arial Black;
  dominant-baseline: central;
  text-anchor: middle;
}</style></svg>